<svg width="36" height="36" viewBox="0 0 36 36" fill="none" xmlns="http://www.w3.org/2000/svg">
<path d="M17.2476 1.89844C17.0437 1.94062 16.6851 2.04609 16.4601 2.1375C16.2281 2.22891 13.2328 3.98672 9.79452 6.04688C4.01483 9.51328 3.51561 9.82969 3.05155 10.2938C2.47499 10.8703 2.0953 11.5664 1.93358 12.3398C1.77889 13.0781 1.77889 30.0938 1.93358 30.832C2.19374 32.0695 3.00233 33.1383 4.09921 33.6797C4.82343 34.0383 5.44921 34.1719 6.41249 34.1719H7.17186L7.18593 25.7484L7.20702 17.332L7.40389 16.9312C7.67811 16.3758 8.13514 15.9258 8.70468 15.6586L9.17577 15.4336H18H26.8242L27.2953 15.6586C27.8648 15.9258 28.3219 16.3758 28.5961 16.9312L28.793 17.332L28.8141 25.7484L28.8281 34.1719H29.5875C30.5508 34.1719 31.1766 34.0383 31.9008 33.6797C32.6883 33.293 33.293 32.6883 33.6797 31.9008C34.2 30.8461 34.1789 31.3523 34.1578 21.3539L34.1367 12.4102L33.982 11.9531C33.757 11.2922 33.3633 10.6734 32.8711 10.2023C32.2875 9.64688 19.9969 2.25703 19.2867 2.03906C18.7453 1.87031 17.775 1.80703 17.2476 1.89844ZM21.4945 9.7875C22.2047 10.1813 22.2609 11.1867 21.593 11.6438L21.3398 11.8125H18H14.6601L14.407 11.6438C13.8375 11.257 13.7672 10.3992 14.2594 9.96328C14.6109 9.64688 14.7656 9.63281 18.1055 9.65391C20.9601 9.66797 21.2906 9.68203 21.4945 9.7875Z" fill="#156E00"/>
<path d="M15.314 18.6047C14.8711 18.7383 14.4492 19.2164 14.3437 19.7086C14.2875 19.9547 14.2664 20.8477 14.2875 22.4297C14.3086 24.6867 14.3156 24.7992 14.4633 25.0664C14.632 25.3898 14.85 25.6008 15.1664 25.7625C15.3633 25.8609 15.7359 25.875 18 25.875C20.264 25.875 20.6367 25.8609 20.8336 25.7625C21.15 25.6008 21.3679 25.3898 21.5367 25.0664C21.6843 24.7992 21.6914 24.6867 21.7125 22.4297C21.7406 19.7086 21.7195 19.5047 21.2976 19.0266C20.8476 18.5133 20.7 18.4922 17.9718 18.4992C16.1578 18.4992 15.5742 18.5273 15.314 18.6047Z" fill="#156E00"/>
<path d="M10.5328 26.9297C10.1953 27.1125 9.87889 27.5063 9.77342 27.8719C9.71717 28.0688 9.70311 28.9125 9.71717 30.6211L9.73826 33.082L9.93514 33.4125C10.0617 33.6305 10.2445 33.8133 10.4625 33.9399L10.793 34.1367L13.1836 34.1578C14.7515 34.1719 15.6937 34.1578 15.9328 34.1016C16.3547 34.0102 16.7555 33.7078 16.9523 33.3211C17.0859 33.0539 17.093 32.9274 17.0719 30.382L17.0508 27.7172L16.8398 27.4149C16.7273 27.2531 16.4883 27.0422 16.3195 26.9508C16.0101 26.7891 15.9961 26.7891 13.4015 26.7891C10.9617 26.7961 10.7789 26.8031 10.5328 26.9297Z" fill="#156E00"/>
<path d="M19.6805 26.9508C19.5117 27.0422 19.2797 27.2531 19.1601 27.4149L18.9492 27.7172L18.9281 30.382C18.907 32.9274 18.9141 33.0539 19.0476 33.3211C19.2445 33.7078 19.6453 34.0102 20.0672 34.1016C20.3062 34.1578 21.2484 34.1719 22.8164 34.1578C25.425 34.1367 25.3969 34.1367 25.8328 33.7078C26.2687 33.2719 26.2617 33.307 26.2828 30.6211C26.3039 27.9352 26.2898 27.7524 25.9312 27.3235C25.4883 26.7891 25.4953 26.7891 22.5844 26.7891C20.0039 26.7891 19.9898 26.7891 19.6805 26.9508Z" fill="#156E00"/>
</svg>
