<svg width="36" height="36" viewBox="0 0 36 36" fill="none" xmlns="http://www.w3.org/2000/svg">
<g clip-path="url(#clip0_227_1957)">
<path d="M6.1172 0.133593C3.12892 0.773438 0.752358 3.15703 0.133608 6.14531C-0.0281111 6.94687 -0.0421736 8.39531 0.105483 9.18984C0.323451 10.35 0.829701 11.482 1.53986 12.4172C1.77189 12.7195 3.25548 14.2664 4.84455 15.8555L7.73439 18.7383L10.6242 15.8555C12.2133 14.2664 13.6969 12.7195 13.9289 12.4172C14.6391 11.482 15.1453 10.35 15.3633 9.18281C15.5039 8.44453 15.5039 7.02422 15.3633 6.28594C14.7656 3.14297 12.3258 0.703125 9.18986 0.105469C8.41642 -0.0421886 6.88361 -0.0281258 6.1172 0.133593ZM8.82423 3.34687C9.59767 3.52969 10.2445 3.90937 10.9055 4.57031C11.8477 5.49844 12.2344 6.42656 12.2344 7.73438C12.2344 9.03516 11.8477 9.96328 10.9055 10.9055C9.9633 11.8477 9.03517 12.2344 7.73439 12.2344C6.43361 12.2344 5.51251 11.8477 4.57033 10.8984C3.62814 9.96328 3.23439 9.02812 3.23439 7.73438C3.23439 6.51094 3.62111 5.53359 4.45783 4.65469C5.62501 3.42422 7.18595 2.96016 8.82423 3.34687Z" fill="#156E00"/>
<path d="M6.87661 5.37891C6.18051 5.63906 5.58989 6.25781 5.37192 6.94688C5.2102 7.47422 5.25942 8.34609 5.49145 8.82422C5.70239 9.26719 6.19458 9.76641 6.64458 9.98438C6.94692 10.1391 7.09458 10.1602 7.73442 10.1602C8.37426 10.1602 8.52192 10.1391 8.82426 9.98438C9.54145 9.63281 10.0829 8.89453 10.1883 8.12109C10.3008 7.29141 10.0618 6.53906 9.49223 5.97656C8.99301 5.47031 8.59926 5.30859 7.80473 5.29453C7.36176 5.28047 7.04536 5.30859 6.87661 5.37891Z" fill="#156E00"/>
<path d="M13.2891 17.1844V18.2742L15.6305 18.2953C17.8805 18.3164 17.9719 18.3234 18.2531 18.4711C18.7242 18.7242 18.9633 18.9633 19.1883 19.4203C19.7016 20.4398 19.3219 21.6 18.2883 22.1273L17.8453 22.3594H15.6234C12.4875 22.3594 11.7141 22.4719 10.4344 23.0976C9.17578 23.7234 7.98047 24.9047 7.38984 26.114C6.8625 27.1898 6.67969 27.9844 6.67969 29.1726C6.67969 30.4101 6.8625 31.2258 7.36875 32.2383C8.23359 33.975 9.65391 35.1703 11.5805 35.768L12.1992 35.9648L18.7242 35.9859L25.2422 36.007V34.9101V33.8203H19.0406C12.15 33.8203 12.4102 33.8344 11.4047 33.3492C10.6383 32.9766 9.70312 32.0414 9.33047 31.275C8.95078 30.4945 8.83828 29.932 8.87344 29.0039C8.92266 27.7523 9.32344 26.8312 10.2023 25.9523C10.9617 25.193 11.8266 24.764 12.8953 24.6164C13.1977 24.5742 14.4703 24.5391 15.7289 24.5391C17.5852 24.5391 18.0984 24.518 18.45 24.4265C19.8914 24.0539 21.1008 22.8445 21.4734 21.3961C21.6211 20.8406 21.6141 19.793 21.4734 19.2375C21.1008 17.8031 19.9055 16.6148 18.457 16.2422C17.9648 16.1156 17.6766 16.1015 15.5953 16.1015H13.2891V17.1844Z" fill="#156E00"/>
<path d="M29.6578 22.4297C28.4274 22.5844 27.2602 23.1539 26.3672 24.0469C25.8609 24.5531 25.5797 24.968 25.2422 25.6852C24.8836 26.4656 24.743 27.1406 24.743 28.0898C24.743 29.0602 24.9117 29.7492 25.3617 30.6562C25.6852 31.3172 25.7063 31.3383 28.0336 33.6797L30.375 36.0352L32.5617 33.8555C34.7555 31.6617 35.1422 31.2188 35.5149 30.4242C36.0141 29.3555 36.1547 27.8367 35.8594 26.6766C35.1563 23.8992 32.4984 22.0852 29.6578 22.4297Z" fill="#156E00"/>
</g>
<defs>
<clipPath id="clip0_227_1957">
<rect width="36" height="36" fill="white"/>
</clipPath>
</defs>
</svg>
