<svg width="36" height="36" viewBox="0 0 36 36" fill="none" xmlns="http://www.w3.org/2000/svg">
<g clip-path="url(#clip0_227_1951)">
<path d="M16.1367 0.0773373C10.6102 0.77343 6.01174 4.35234 4.05706 9.49218C2.74221 12.9516 2.74221 17.0016 4.05706 20.3484C5.49143 24.0047 8.07893 26.8102 11.5664 28.5117C13.9711 29.6859 16.3617 30.1641 19.1039 30.0164C24.0117 29.7492 28.3852 27.1547 30.9586 22.9922C32.0063 21.2906 32.7867 19.0266 33.0469 16.9453C33.1383 16.1789 33.1383 14.0203 33.0469 13.3102C32.6602 10.4133 31.5774 7.83984 29.8125 5.625C29.2641 4.94296 28.0266 3.7125 27.3516 3.18515C26.1563 2.25703 24.4547 1.32187 23.0977 0.843742C22.2117 0.534369 20.918 0.224993 19.9828 0.105461C19.118 -0.00703812 16.9594 -0.021101 16.1367 0.0773373ZM18.6188 5.45625C19.1461 5.67421 19.3008 5.91328 20.4188 8.1914L21.4875 10.3711L23.843 10.7086C25.1297 10.8984 26.3039 11.0953 26.4375 11.1516C26.768 11.2922 27.1266 11.6437 27.2883 11.9883C27.4571 12.3539 27.4571 12.9586 27.2883 13.3242C27.2039 13.5141 26.5781 14.175 25.411 15.3211L23.6602 17.0367L24.075 19.4695C24.5039 22.0148 24.511 22.1344 24.2578 22.6406C23.9766 23.182 23.4633 23.4844 22.8164 23.4844C22.3735 23.4844 22.3735 23.4844 19.7086 22.0711L18.0071 21.1641L15.8414 22.3102L13.6758 23.4492H13.1344C12.6492 23.4492 12.5719 23.4281 12.2977 23.2383C11.9391 22.9852 11.7 22.6617 11.5875 22.2609C11.5172 22.0078 11.5594 21.6773 11.925 19.5047L12.3328 17.0297L10.568 15.3C8.66252 13.4297 8.57112 13.3031 8.57112 12.6141C8.57112 12.0023 8.93674 11.4469 9.52737 11.1797C9.70315 11.0953 10.6805 10.9266 12.1571 10.7086L14.5125 10.3781L15.5461 8.25468C16.1156 7.0875 16.6922 6.01171 16.8188 5.87109C16.9453 5.72343 17.1774 5.54765 17.3321 5.47734C17.6766 5.31562 18.2672 5.30859 18.6188 5.45625Z" fill="#156E00"/>
<path d="M17.1211 9.63982C16.6571 10.575 16.193 11.475 16.0875 11.6367C15.743 12.1922 15.518 12.2695 13.3524 12.593C12.2907 12.7476 11.3485 12.8883 11.2571 12.9094C11.1024 12.9445 11.2289 13.0922 12.6 14.4703C13.4368 15.307 14.168 16.0945 14.2313 16.214C14.4422 16.65 14.4282 16.9242 14.0696 19.0125C13.8727 20.1375 13.725 21.0656 13.7461 21.0797C13.7602 21.0937 14.5899 20.6789 15.5883 20.1586C16.5868 19.6312 17.536 19.1742 17.7047 19.139C17.8875 19.0969 18.1125 19.0969 18.2953 19.139C18.4641 19.1742 19.4133 19.6312 20.4118 20.1586C21.4102 20.6789 22.2399 21.0937 22.2539 21.0797C22.268 21.0656 22.1274 20.1375 21.9305 19.0195C21.5649 16.889 21.5508 16.65 21.7899 16.1859C21.8672 16.0383 22.5914 15.2648 23.4071 14.4562C24.2297 13.6476 24.8766 12.9726 24.8555 12.9515C24.8344 12.9305 23.8993 12.7758 22.7813 12.614C21.6633 12.4453 20.6578 12.2625 20.5453 12.2062C20.0672 11.9601 19.9336 11.7562 18.9844 9.85076C18.4641 8.80311 18.0211 7.94529 18 7.94529C17.9789 7.94529 17.5852 8.7117 17.1211 9.63982Z" fill="#156E00"/>
<path d="M3.39609 24.4828C3.36094 24.532 2.58047 25.875 1.66641 27.464C0.0632812 30.2414 0 30.368 0 30.7265C0 31.1625 0.161719 31.4719 0.492188 31.6617C0.675 31.7742 1.06172 31.8164 2.83359 31.9289C4.00078 31.9992 4.99922 32.0625 5.04844 32.0625C5.09766 32.0625 5.68828 32.8922 6.35625 33.9047C7.16484 35.1281 7.65703 35.7961 7.79062 35.8734C8.08594 36.0492 8.69063 36.0422 8.96484 35.8594C9.1125 35.7609 9.55547 35.0719 10.4906 33.4547L11.8125 31.1836L11.5805 31.0851C9.97031 30.375 8.43047 29.4679 7.27734 28.5469C6.06797 27.5765 4.70391 26.1211 3.91641 24.9469C3.7125 24.6445 3.52969 24.4054 3.50859 24.3984C3.48047 24.3984 3.43125 24.4406 3.39609 24.4828Z" fill="#156E00"/>
<path d="M32.2383 24.7359C31.5704 25.7977 29.8829 27.6258 28.7227 28.5469C27.5555 29.475 26.1493 30.3047 24.4196 31.0852L24.1946 31.1836L25.4532 33.3633C26.2125 34.6711 26.8102 35.6344 26.9649 35.775C27.1829 35.9719 27.2532 36 27.6047 36C27.8508 36 28.0758 35.9578 28.2094 35.8805C28.343 35.7961 28.8422 35.1141 29.6368 33.9047C30.4594 32.6742 30.9024 32.0625 30.9868 32.0625C31.0571 32.0555 32.0485 31.9992 33.1946 31.9289C34.9594 31.8234 35.311 31.7812 35.5008 31.6688C35.8383 31.4719 36 31.1625 36 30.7195C36 30.3539 35.9368 30.2414 34.2915 27.3938C33.3563 25.7695 32.5547 24.4336 32.5196 24.4195C32.4774 24.4125 32.3579 24.5461 32.2383 24.7359Z" fill="#156E00"/>
</g>
<defs>
<clipPath id="clip0_227_1951">
<rect width="36" height="36" fill="white"/>
</clipPath>
</defs>
</svg>
