<svg width="36" height="36" viewBox="0 0 36 36" fill="none" xmlns="http://www.w3.org/2000/svg">
<g clip-path="url(#clip0_227_1947)">
<path d="M13.2102 2.41172C12.4899 2.61563 11.8186 3.19922 11.4829 3.92344C11.2941 4.32422 11.2941 4.33125 11.2731 6.23672L11.2521 8.15625H7.14709C2.67142 8.15625 2.60848 8.16328 1.8602 8.56406C1.3427 8.83828 0.62939 9.5836 0.363647 10.1109C0.0279715 10.8 -0.013988 11.1445 0.0209782 12.9656C0.0419579 14.3719 0.0699309 14.6602 0.202803 15.1031C0.699323 16.7836 1.93713 18.1898 3.49662 18.8508C4.07706 19.0969 16.0845 22.6195 16.7838 22.7531C17.4481 22.8727 18.3503 22.8727 19.0216 22.7531C19.7209 22.6266 31.7074 19.1109 32.3018 18.8578C33.8613 18.1969 35.1131 16.7766 35.6026 15.1031C35.7355 14.6602 35.7565 14.3648 35.7844 12.9656C35.8264 11.1516 35.7844 10.807 35.4418 10.1109C35.176 9.5836 34.4627 8.83828 33.9452 8.56406C33.1969 8.16328 33.134 8.15625 28.6653 8.15625H24.5533L24.5323 6.23672C24.5113 4.33125 24.5113 4.32422 24.3225 3.92344C24.0637 3.36094 23.5742 2.85469 23.0148 2.58047L22.5532 2.35547L18.0426 2.34141C14.6159 2.32734 13.455 2.34844 13.2102 2.41172ZM22.0637 4.81641L22.2385 4.98516V6.57422V8.15625H17.9027H13.5669V6.57422V4.98516L13.7417 4.81641L13.9096 4.64063H17.9027H21.8958L22.0637 4.81641Z" fill="#156E00"/>
<path d="M-1.11799e-07 24.8344C-1.11799e-07 31.1555 -0.00699335 31.043 0.405608 31.8094C0.678344 32.3227 1.35669 32.9906 1.8672 33.2508C2.78331 33.7078 1.62942 33.6797 17.9027 33.6797C34.0921 33.6797 33.0151 33.7078 33.9032 33.2719C34.3858 33.0398 35.134 32.3086 35.3998 31.8094C35.8124 31.0359 35.8054 31.1555 35.8054 24.8344V19.0406L35.3718 19.4484C34.8194 19.9617 33.8263 20.6086 33.1829 20.8758C32.9172 20.9883 32.2249 21.2273 31.6444 21.4031C29.1898 22.1414 21.3504 24.4266 20.3783 24.6867C18.4552 25.193 17.3502 25.193 15.4201 24.6797C13.462 24.1664 3.32878 21.157 2.73436 20.918C1.97209 20.6086 1.09794 20.0461 0.489527 19.4906L-1.11799e-07 19.0406V24.8344Z" fill="#156E00"/>
</g>
<defs>
<clipPath id="clip0_227_1947">
<rect width="35.8054" height="36" fill="white"/>
</clipPath>
</defs>
</svg>
