<svg width="176" height="54" viewBox="0 0 176 54" fill="none" xmlns="http://www.w3.org/2000/svg">
<g clip-path="url(#clip0_2001_560)">
<path d="M10.3927 20.8431C11.1718 20.8431 11.8774 20.9159 12.4801 21.0469C13.0828 21.1779 13.612 21.3526 14.0383 21.5418C14.4645 21.731 14.8173 21.9348 15.0819 22.1385C15.3465 22.3569 15.5229 22.5461 15.5964 22.7208C15.5964 23.1429 15.5523 23.5213 15.4494 23.827C15.3465 24.1326 15.2289 24.3946 15.0672 24.5984H14.9202C14.7879 24.6275 14.6409 24.5984 14.4645 24.5256C14.2881 24.4528 14.0824 24.3655 13.8619 24.2636C13.3327 24.0162 12.73 23.8415 12.0832 23.7396C11.8774 23.7105 11.6863 23.696 11.4952 23.6814C11.3041 23.6668 11.0983 23.6668 10.8631 23.6668C10.7308 23.6668 10.5985 23.6668 10.4662 23.6668C10.3339 23.6668 10.2016 23.6814 10.0693 23.7105C9.18734 23.7833 8.34945 24.0307 7.57037 24.4674C6.79128 24.8895 6.10039 25.5299 5.5271 26.3887C4.93911 27.2329 4.48342 28.31 4.13063 29.6199C3.77783 30.9154 3.60144 32.4728 3.60144 34.2776C3.60144 37.5817 4.20413 39.9978 5.4242 41.5407C6.64428 43.0836 8.34945 43.855 10.5838 43.855C11.4952 43.855 12.3772 43.7385 13.2151 43.5202C14.0677 43.3019 14.6997 43.0399 15.126 42.7633C15.273 43.0399 15.3759 43.4329 15.4347 43.9278C15.3612 44.6555 15.0672 45.2232 14.5674 45.6598C14.2146 45.9655 13.6267 46.242 12.8182 46.4895C12.0097 46.7369 11.0836 46.8679 10.0546 46.8679C8.51115 46.8679 7.12937 46.6641 5.9093 46.2712C4.68922 45.8636 3.63084 45.1941 2.76355 44.2189C1.89627 43.2582 1.22008 41.9919 0.749687 40.4054C0.235196 38.7898 0 36.8248 0 34.4814C0 29.6199 1.08778 26.0394 3.26334 23.7105C4.30702 22.6043 5.4242 21.862 6.64428 21.4544C7.86436 21.0469 9.09914 20.8431 10.3927 20.8431Z" fill="#156E00"/>
<path d="M18.5069 30.7989C18.4775 30.7261 18.4628 30.5806 18.4628 30.3914C18.4628 30.2604 18.4922 30.1294 18.5363 29.9838C18.9479 29.6054 19.6682 29.227 20.6972 28.834C21.7409 28.441 22.8874 28.2226 24.1516 28.179C24.4603 28.179 24.6661 28.179 24.7984 28.179C24.9307 28.179 25.1512 28.1935 25.4746 28.2226C26.8858 28.3245 27.856 28.8194 28.3998 29.7073C28.929 30.5952 29.1936 31.8469 29.1936 33.448V35.1364C29.1936 36.4318 29.1789 37.7709 29.1495 39.1536C29.1201 40.5364 29.1054 41.7154 29.1054 42.7197C29.076 43.069 29.1054 43.3892 29.1789 43.6512C29.223 43.8695 29.3259 44.0733 29.4876 44.248C29.6346 44.4226 29.8698 44.4809 30.1638 44.4372C30.1344 44.7137 30.1197 44.9757 30.1197 45.2377C30.1197 45.4997 30.1197 45.6889 30.1197 45.8199C29.9727 46.0237 29.7228 46.2129 29.3847 46.3876C29.0466 46.5623 28.6203 46.6642 28.1206 46.6933C27.6649 46.6933 27.2239 46.5332 26.7976 46.2275C26.3713 45.9218 26.0479 45.6162 25.8568 45.3396C25.7245 45.4706 25.5628 45.6016 25.357 45.7763C25.1512 45.9364 24.9454 46.0819 24.7543 46.2129C24.328 46.4167 23.887 46.5477 23.4313 46.6059C22.9756 46.6642 22.4906 46.6933 21.9908 46.6933C21.3881 46.6933 20.8001 46.6059 20.2268 46.4167C19.6535 46.2275 19.1537 45.9218 18.7127 45.5143C18.2717 45.1067 17.9189 44.5828 17.6543 43.9714C17.3897 43.3601 17.2574 42.6178 17.2574 41.7445C17.2574 40.5946 17.4779 39.6485 17.9336 38.8916C18.3893 38.1348 18.9479 37.538 19.5947 37.0868C20.2562 36.6356 20.9471 36.3154 21.6821 36.1116C22.4171 35.9078 23.0785 35.7914 23.6518 35.7332C23.8576 35.704 24.034 35.6895 24.1957 35.6895C24.3574 35.6895 24.5338 35.6895 24.7102 35.6895C25.1953 35.6895 25.6069 35.7332 25.9597 35.8059V33.6663C25.9597 32.8221 25.8568 32.1671 25.651 31.7159C25.4452 31.2647 24.9454 31.0464 24.1369 31.0464C23.4754 31.0464 22.7845 31.1482 22.0643 31.3666C21.344 31.5849 20.7119 31.8032 20.1533 32.0216C19.6976 32.2253 19.3301 32.3272 19.0508 32.3272C18.8744 32.1235 18.7421 31.876 18.6686 31.5995C18.6098 31.2792 18.551 31.0173 18.5069 30.7989ZM25.9009 42.3995C25.945 42.1811 25.9744 41.9191 25.9744 41.628C25.9744 41.3369 25.9744 41.0022 25.9744 40.5946V37.931C25.8421 37.9019 25.7245 37.8873 25.5922 37.8873C25.4599 37.8873 25.3423 37.8873 25.21 37.8873C24.9895 37.8873 24.769 37.8873 24.5632 37.9019C24.3574 37.9164 24.1516 37.931 23.9605 37.9601C23.5048 38.0329 23.0785 38.1493 22.667 38.2949C22.2554 38.4404 21.9026 38.6588 21.5792 38.9208C21.2705 39.1828 21.0206 39.5175 20.8442 39.9105C20.6678 40.3181 20.5796 40.8129 20.5796 41.4097C20.5796 42.3558 20.7707 43.0253 21.1529 43.4183C21.5351 43.8113 22.0055 44.0297 22.5935 44.0733H22.858C23.446 44.0733 24.0046 43.9569 24.5485 43.7385C25.0924 43.5202 25.504 43.2437 25.7833 42.9089C25.8127 42.8652 25.8274 42.7925 25.8421 42.7051C25.8568 42.6323 25.8715 42.5159 25.9009 42.3995Z" fill="#156E00"/>
<path d="M38.9837 23.3612C39.8216 23.2302 40.6301 23.0846 41.4092 22.91C42.1883 22.7353 42.7175 22.5606 42.9968 22.386C43.1438 22.6625 43.2467 23.0555 43.3055 23.5504C43.232 24.2782 42.938 24.8458 42.4382 25.2825C42.1589 25.5299 41.7179 25.7628 41.1299 25.952C40.5419 26.1558 39.8657 26.3013 39.1454 26.4032C38.7632 26.4469 38.4104 26.5633 38.0576 26.7235C37.7195 26.8836 37.4403 27.1456 37.2492 27.4949C36.4113 28.8922 35.8527 30.5224 35.5881 32.3709C35.4411 33.5499 35.3676 34.7434 35.3676 35.9806C35.3676 37.1596 35.4411 38.2221 35.5734 39.1682C35.7057 40.1143 35.9409 40.9294 36.2496 41.5844C36.5583 42.2539 36.9846 42.7488 37.4991 43.0981C38.0135 43.4474 38.6456 43.6221 39.3806 43.6221C40.7477 43.6221 41.7914 43.1127 42.5264 42.1084C43.2614 41.0895 43.6288 39.7504 43.6288 38.0766C43.6288 36.7229 43.3643 35.6895 42.8498 34.9617C42.3353 34.234 41.6738 33.7682 40.8653 33.579C40.7183 33.5499 40.5566 33.5353 40.4096 33.5208C40.2626 33.5062 40.1009 33.5062 39.9539 33.5062C39.6452 33.5062 39.3512 33.5353 39.0425 33.579C38.7338 33.6226 38.4692 33.6809 38.2487 33.7245C38.2193 33.5935 38.2046 33.4625 38.2046 33.317C38.2046 33.1714 38.2046 33.0113 38.2046 32.8658C38.2046 32.5164 38.2487 32.1671 38.3369 31.8323C38.4251 31.4976 38.6309 31.2647 38.969 31.1337C39.1895 31.0318 39.4688 30.9445 39.8069 30.8717C40.1303 30.7989 40.5125 30.7553 40.9388 30.7553C41.0417 30.7553 41.1446 30.7553 41.2475 30.7698C41.3504 30.7844 41.468 30.7844 41.5856 30.7844C42.4235 30.8863 43.1585 31.1337 43.7905 31.5412C44.4226 31.9488 44.9518 32.4437 45.3781 33.055C45.8044 33.6663 46.1278 34.365 46.3483 35.1509C46.5688 35.9369 46.6717 36.7811 46.6717 37.6836C46.6717 38.9353 46.51 40.0852 46.2013 41.1186C45.8926 42.152 45.4222 43.0399 44.8048 43.7822C44.1874 44.5245 43.4084 45.0922 42.497 45.5143C41.5709 45.9218 40.5125 46.1402 39.2924 46.1402C37.9988 46.1402 36.9258 45.9364 36.0438 45.5434C35.1765 45.1359 34.4709 44.51 33.9417 43.6658C33.4125 42.8216 33.0303 41.7154 32.7804 40.3763C32.5452 39.0372 32.4129 37.4361 32.3835 35.5876C32.4129 33.4916 32.6187 31.5849 33.0156 29.8819C33.4125 28.179 34.0593 26.6798 34.9707 25.3698C35.4264 24.7148 36.0144 24.2491 36.7494 23.958C37.4403 23.696 38.1899 23.4922 38.9837 23.3612Z" fill="#156E00"/>
<path d="M63.4293 37.3342C63.4293 38.9062 63.2529 40.2889 62.8855 41.4679C62.518 42.6469 62.0035 43.6221 61.3567 44.4081C60.6952 45.1941 59.9308 45.7908 59.0488 46.1984C58.1668 46.6059 57.1967 46.7952 56.1236 46.7952C53.7716 46.7952 51.9635 46.0674 50.6994 44.6119C49.4352 43.1563 48.8031 40.8129 48.8031 37.5526C48.8031 35.9515 48.9795 34.5542 49.347 33.3606C49.7145 32.1671 50.229 31.1919 50.8758 30.435C51.5373 29.6782 52.3163 29.096 53.2277 28.7321C54.1391 28.3536 55.1387 28.1644 56.2265 28.1644C61.0333 28.1644 63.4293 31.221 63.4293 37.3342ZM52.331 37.407C52.331 38.7024 52.4192 39.8086 52.6103 40.6965C52.8014 41.5844 53.066 42.2976 53.4041 42.8361C53.7422 43.3747 54.1538 43.7677 54.6389 44.0005C55.124 44.2334 55.6385 44.3644 56.1971 44.3644C56.6969 44.3644 57.182 44.248 57.6376 44.0005C58.0933 43.7677 58.4902 43.3747 58.8283 42.8361C59.1664 42.2976 59.4457 41.5844 59.6368 40.7111C59.8426 39.8377 59.9455 38.7461 59.9455 37.4507C59.9455 34.9908 59.6074 33.2588 58.9165 32.2253C58.2403 31.1919 57.329 30.6825 56.1824 30.6825H56.1089C55.6091 30.6825 55.124 30.7989 54.6683 31.0464C54.2126 31.2792 53.8157 31.6722 53.4482 32.2108C53.0954 32.7493 52.8161 33.448 52.6103 34.2922C52.4192 35.1364 52.331 36.1698 52.331 37.407Z" fill="#156E00"/>
<path d="M75.8654 28.3245C76.0123 28.0771 76.2916 27.917 76.7032 27.8733C77.1148 27.8297 77.6734 27.8005 78.4084 27.8005H78.82L78.7759 28.2081C78.7759 28.8631 78.7759 29.5617 78.7612 30.3332C78.7465 31.09 78.7465 31.9488 78.7465 32.9094V41.7299C78.7465 42.6032 78.7465 43.3601 78.7612 43.986C78.7759 44.6119 78.7759 45.1795 78.7759 45.6744V45.82L78.7024 45.9364C78.4966 46.1402 78.2026 46.2566 77.8351 46.3148C77.4529 46.3585 76.8943 46.3876 76.1741 46.3876H75.9095L75.7919 46.1256C75.6449 45.6744 75.5714 45.1795 75.5714 44.6264V37.8728C75.2921 37.9019 74.954 37.9164 74.5718 37.931C74.1749 37.9456 73.6751 37.9456 73.0724 37.9456H70.0002V44.2916C70.0002 44.6119 69.9708 44.9175 69.9267 45.1795C69.8826 45.4415 69.7503 45.7035 69.5445 45.951C69.3681 46.1547 69.1182 46.2712 68.8095 46.3294C68.5008 46.373 67.9422 46.4022 67.1631 46.4022H66.7368V45.9946C66.7368 45.3396 66.7368 44.641 66.7515 43.8695C66.7662 43.1127 66.7662 42.2539 66.7662 41.2933V32.5019C66.7662 31.6577 66.7662 30.9008 66.7515 30.2458C66.7368 29.5908 66.7368 29.0377 66.7368 28.5574V28.3682L66.8544 28.2518C67.0602 28.048 67.3542 27.9315 67.7217 27.8733C68.1039 27.8297 68.6184 27.8005 69.2799 27.8005H69.5004L69.6474 27.9898C69.7797 28.1935 69.8679 28.4264 69.912 28.703C69.9561 28.9795 69.9855 29.3725 69.9855 29.8674V35.1946H75.5567V30.0129C75.5714 29.2852 75.6743 28.7175 75.8654 28.3245Z" fill="#156E00"/>
<path d="M83.1859 30.7989C83.1565 30.7261 83.1418 30.5806 83.1418 30.3914C83.1418 30.2604 83.1712 30.1294 83.2153 29.9838C83.6269 29.6054 84.3472 29.227 85.3761 28.834C86.4198 28.441 87.5664 28.2226 88.8306 28.179C89.1393 28.179 89.3451 28.179 89.4774 28.179C89.6097 28.179 89.8302 28.1935 90.1536 28.2226C91.5647 28.3245 92.5496 28.8194 93.0788 29.7073C93.608 30.5952 93.8726 31.8469 93.8726 33.448V35.1364C93.8726 36.4318 93.8579 37.7709 93.8285 39.1536C93.7991 40.5364 93.7844 41.7154 93.7844 42.7197C93.755 43.069 93.7844 43.3892 93.8579 43.6512C93.902 43.8695 94.0049 44.0733 94.1666 44.248C94.3136 44.4226 94.5488 44.4809 94.8428 44.4372C94.8134 44.7137 94.7987 44.9757 94.7987 45.2377C94.7987 45.4997 94.7987 45.6889 94.7987 45.8199C94.6517 46.0237 94.4018 46.2129 94.0637 46.3876C93.7256 46.5623 93.2993 46.6642 92.7995 46.6933C92.3438 46.6933 91.9028 46.5332 91.4765 46.2275C91.0502 45.9218 90.7268 45.6162 90.5357 45.3396C90.4035 45.4706 90.2418 45.6016 90.036 45.7763C89.8302 45.9364 89.6244 46.0819 89.4333 46.2129C89.007 46.4167 88.566 46.5477 88.1103 46.6059C87.6546 46.6642 87.1695 46.6933 86.6697 46.6933C86.067 46.6933 85.479 46.6059 84.9057 46.4167C84.3325 46.2275 83.8327 45.9218 83.3917 45.5143C82.9507 45.1067 82.5979 44.5828 82.3333 43.9714C82.0687 43.3601 81.9364 42.6178 81.9364 41.7445C81.9364 40.5946 82.1569 39.6485 82.6126 38.8916C83.0683 38.1348 83.6269 37.538 84.2737 37.0868C84.9351 36.6356 85.626 36.3154 86.361 36.1116C87.096 35.9078 87.7575 35.7914 88.3308 35.7332C88.5366 35.704 88.713 35.6895 88.8747 35.6895C89.0364 35.6895 89.2128 35.6895 89.3892 35.6895C89.8743 35.6895 90.2858 35.7332 90.6386 35.8059V33.6663C90.6386 32.8221 90.5357 32.1671 90.3299 31.7159C90.1242 31.2647 89.6244 31.0464 88.8159 31.0464C88.1544 31.0464 87.4635 31.1482 86.7432 31.3666C86.0229 31.5849 85.3908 31.8032 84.8322 32.0216C84.3766 32.2253 84.0091 32.3272 83.7298 32.3272C83.5534 32.1235 83.4211 31.876 83.3476 31.5995C83.3035 31.2792 83.2447 31.0173 83.1859 30.7989ZM90.5798 42.3995C90.6239 42.1811 90.6533 41.9191 90.6533 41.628C90.6533 41.3369 90.6533 41.0022 90.6533 40.5946V37.931C90.521 37.9019 90.4034 37.8873 90.2711 37.8873C90.1388 37.8873 90.0213 37.8873 89.889 37.8873C89.6685 37.8873 89.448 37.8873 89.2422 37.9019C89.0364 37.9164 88.8306 37.931 88.6395 37.9601C88.1838 38.0329 87.7575 38.1493 87.3459 38.2949C86.9343 38.4404 86.5815 38.6588 86.2581 38.9208C85.9494 39.1828 85.6995 39.5175 85.5231 39.9105C85.3467 40.3181 85.2585 40.8129 85.2585 41.4097C85.2585 42.3558 85.4496 43.0253 85.8318 43.4183C86.214 43.8113 86.6844 44.0297 87.2724 44.0733H87.537C88.125 44.0733 88.6836 43.9569 89.2275 43.7385C89.7714 43.5202 90.183 43.2437 90.4623 42.9089C90.4917 42.8652 90.5063 42.7925 90.521 42.7051C90.5357 42.6323 90.5504 42.5159 90.5798 42.3995Z" fill="#156E00"/>
<path d="M107.191 46.373C107.058 46.1693 106.97 45.9509 106.926 45.7035C106.882 45.4561 106.852 45.1504 106.852 44.8011V26.7817C106.852 25.7337 106.852 24.8022 106.838 23.9871C106.823 23.172 106.808 22.4442 106.779 21.7892C106.926 21.6582 107.249 21.5709 107.749 21.4836C108.249 21.4108 108.969 21.3671 109.925 21.3671C110.057 21.6146 110.13 21.9057 110.175 22.2259C110.219 22.5461 110.233 23.041 110.233 23.696V32.5601C111.527 30.7844 112.85 28.9213 114.217 26.9854C115.584 25.0496 116.936 23.172 118.274 21.3671C118.406 21.338 118.524 21.3234 118.656 21.3234C118.789 21.3234 118.921 21.3234 119.068 21.3234C119.318 21.3234 119.568 21.3234 119.803 21.338C120.038 21.3526 120.259 21.3526 120.464 21.3526C121.096 21.3817 121.405 21.5563 121.405 21.8765C121.405 22.0512 121.317 22.2987 121.141 22.6334C121.038 22.779 120.935 22.9536 120.817 23.1429C120.7 23.3321 120.582 23.4922 120.45 23.6086C119.965 24.2636 119.45 24.9623 118.892 25.7046C118.333 26.4615 117.76 27.2183 117.186 28.0189C116.598 28.8048 116.025 29.5763 115.437 30.3477C114.849 31.1046 114.305 31.8469 113.776 32.5456C114.379 33.1278 114.981 33.8264 115.584 34.6415C116.172 35.4712 116.745 36.3445 117.289 37.2469C117.833 38.1639 118.348 39.0809 118.847 39.9833C119.347 40.9003 119.803 41.7445 120.229 42.5305C120.655 43.3164 121.038 44.0005 121.39 44.5827C121.729 45.165 122.023 45.558 122.243 45.7908C122.243 45.9218 122.228 46.0092 122.184 46.0528C122.14 46.0965 122.023 46.1693 121.817 46.242C121.684 46.2857 121.493 46.3439 121.214 46.3876C120.935 46.4313 120.626 46.4604 120.303 46.4604H119.773C119.097 46.3876 118.553 46.0528 118.186 45.4706C117.804 44.8884 117.495 44.2916 117.245 43.6803C116.995 43.1272 116.701 42.5305 116.348 41.8755C116.01 41.2205 115.628 40.5655 115.217 39.8814C114.805 39.2119 114.364 38.5423 113.894 37.8873C113.423 37.2323 112.938 36.621 112.438 36.0534C111.953 35.5294 111.527 35.0636 111.13 34.6415C110.733 34.234 110.439 33.9574 110.233 33.841V41.2059C110.233 42.2539 110.233 43.1563 110.248 43.9132C110.263 44.6701 110.263 45.3396 110.263 45.9364C110.13 46.1402 109.836 46.2566 109.351 46.3003C108.866 46.3585 108.146 46.373 107.191 46.373Z" fill="#EAC500"/>
<path d="M127.285 53.6652C127.153 53.7671 126.918 53.8399 126.55 53.9127C126.183 53.9709 125.786 54 125.359 54C124.904 54 124.507 53.9563 124.183 53.8836C124.139 53.5633 124.095 53.083 124.095 52.4717C124.08 51.8604 124.08 51.0744 124.08 50.1283V32.6038C124.08 32.007 124.036 31.483 123.963 31.0318C123.889 30.5806 123.786 30.173 123.654 29.7946C123.728 29.6636 123.889 29.5472 124.154 29.4162C124.404 29.2852 124.742 29.1251 125.139 28.9213C125.183 28.9213 125.227 28.9213 125.256 28.9067C125.286 28.8922 125.301 28.8922 125.33 28.8922H125.403C125.756 28.8922 126.036 28.9941 126.212 29.2124C126.403 29.4307 126.535 29.6927 126.609 30.0129C127.065 29.6345 127.506 29.3288 127.932 29.096C128.358 28.8631 128.784 28.6739 129.225 28.5574C129.637 28.4264 130.004 28.3391 130.343 28.2518C130.681 28.179 131.063 28.1353 131.504 28.1353C132.415 28.1353 133.268 28.2809 134.047 28.5865C134.826 28.8922 135.517 29.358 136.12 30.0129C136.708 30.6679 137.178 31.4976 137.516 32.531C137.854 33.5644 138.031 34.8016 138.031 36.2426C138.031 38.6151 137.722 40.551 137.104 42.021C136.487 43.4911 135.693 44.6264 134.738 45.3978C134.062 45.9509 133.371 46.3148 132.665 46.504C131.974 46.6933 131.327 46.7806 130.754 46.7806C130.019 46.7806 129.358 46.6787 128.77 46.4749C128.182 46.2712 127.711 46.0528 127.388 45.8054V52.035C127.388 52.3407 127.388 52.6173 127.388 52.8792C127.359 53.1558 127.329 53.4032 127.285 53.6652ZM130.166 44.2771C130.592 44.2771 131.063 44.1607 131.563 43.9423C132.062 43.724 132.533 43.3164 132.959 42.7342C133.385 42.152 133.738 41.366 134.017 40.3472C134.297 39.3283 134.429 38.0474 134.429 36.5046C134.429 34.4814 134.106 33.0259 133.459 32.1671C132.812 31.3084 131.886 30.8717 130.666 30.8717C130.004 30.8717 129.387 31.0318 128.814 31.3375C128.226 31.6431 127.741 31.9779 127.329 32.3272V43.069C127.608 43.4183 128.005 43.7094 128.505 43.9278C129.034 44.1607 129.578 44.2771 130.166 44.2771Z" fill="#EAC500"/>
<path d="M147.233 32.7057C147.968 32.7057 148.614 32.8367 149.188 33.0841C149.761 33.3315 150.261 33.6809 150.687 34.1321C151.598 35.18 152.054 36.6938 152.054 38.6733C152.054 39.7067 151.966 40.5946 151.79 41.3515C151.613 42.1084 151.393 42.7779 151.128 43.3455C150.863 43.9132 150.569 44.379 150.231 44.7574C149.908 45.1358 149.585 45.427 149.291 45.6598C148.732 46.0092 148.129 46.2857 147.468 46.4604C146.806 46.6496 146.16 46.7369 145.498 46.7369C144.734 46.7369 144.043 46.6641 143.411 46.5331C142.779 46.4022 142.249 46.1984 141.823 45.9509L141.75 45.8782L141.676 45.7617C141.5 45.3396 141.412 44.772 141.412 44.0733V31.5849C141.412 31.0027 141.412 30.5224 141.397 30.1439C141.382 29.7509 141.367 29.3871 141.338 29.0377V28.965L141.382 28.8922C141.588 28.4119 141.941 28.1353 142.47 28.048C142.984 27.9606 143.469 27.917 143.925 27.917H144.19L144.307 28.179C144.41 28.3827 144.484 28.6302 144.513 28.9504C144.557 29.2561 144.572 29.7364 144.572 30.3623V33.4043C144.998 33.2005 145.439 33.0404 145.88 32.9094C146.292 32.7784 146.748 32.7057 147.233 32.7057ZM146.13 44.5682C146.512 44.5682 146.88 44.4809 147.247 44.3062C147.615 44.1315 147.923 43.8404 148.188 43.4183C148.453 43.0108 148.673 42.4431 148.835 41.7299C148.997 41.0167 149.085 40.1288 149.085 39.0517C149.085 37.5526 148.908 36.5046 148.556 35.9224C148.203 35.3402 147.585 35.0345 146.703 35.0345C146.321 35.0345 145.939 35.0927 145.542 35.2092C145.145 35.3256 144.822 35.5148 144.543 35.7914V44.2334C144.719 44.3353 144.954 44.4081 145.219 44.4809C145.498 44.5391 145.807 44.5682 146.13 44.5682Z" fill="#EAC500"/>
<path d="M155.994 45.9218L155.876 46.0383C155.67 46.242 155.376 46.3585 155.009 46.4167C154.627 46.4604 154.068 46.4895 153.348 46.4895C153.215 46.4895 153.083 46.4458 152.951 46.3439C152.818 46.242 152.745 45.9946 152.745 45.5871V31.4685C152.745 30.4933 152.73 29.8528 152.701 29.5326C152.671 29.227 152.657 29.0377 152.657 28.9941L152.613 28.8776L152.686 28.7612C152.863 28.3391 153.186 28.0916 153.627 28.0043C154.083 27.9315 154.641 27.8879 155.288 27.8879C155.538 27.8879 155.7 27.9898 155.744 28.2081C155.788 28.4264 155.832 28.572 155.861 28.6739C155.891 28.8194 155.905 29.0086 155.905 29.2415C155.905 29.4598 155.905 29.7364 155.905 30.0712V33.4189L155.861 37.1013L155.905 40.6237V43.2582C155.905 43.7531 155.905 44.1898 155.92 44.5391C155.935 44.8884 155.935 45.165 155.935 45.3687V45.7763L155.994 45.9218Z" fill="#EAC500"/>
<path d="M172.516 43.3747L172.399 42.0647L172.252 40.1143L172.207 39.2846L172.134 38.6151C172.105 38.2367 172.09 37.8146 172.075 37.3633C172.06 36.8976 172.06 36.4318 172.06 35.9515L172.016 35.0199V34.8307C171.811 35.4857 171.605 36.1116 171.414 36.7229C171.208 37.3342 171.017 37.8582 170.84 38.2803C170.59 38.9353 170.341 39.6049 170.105 40.2889C169.87 40.973 169.62 41.6571 169.37 42.3412L168.988 43.3601V43.3164C168.856 43.7677 168.562 44.0442 168.077 44.1461C167.651 44.2189 167.224 44.2625 166.783 44.2625H166.475L166.401 43.9569L165.034 39.896L164.314 37.8291C164.27 37.6981 164.181 37.4216 164.049 36.9704C163.917 36.5191 163.755 36.0243 163.549 35.4712L163.432 35.0199C163.402 35.0927 163.388 35.1801 163.388 35.2674C163.388 35.3547 163.388 35.442 163.388 35.5148V35.7332C163.388 36.228 163.388 36.7229 163.388 37.2032C163.388 37.6836 163.358 38.0911 163.314 38.4404C163.064 40.9876 162.873 43.0399 162.741 44.5973C162.741 44.641 162.741 44.6846 162.726 44.7283C162.711 44.772 162.711 44.8156 162.711 44.8593C162.667 45.0631 162.623 45.2377 162.594 45.3833C162.564 45.5288 162.52 45.689 162.447 45.8782L162.403 45.9509L162.329 45.9946C162.05 46.2129 161.668 46.3294 161.197 46.3294C161.021 46.3294 160.83 46.3294 160.624 46.3148C160.418 46.3003 160.198 46.2712 159.948 46.2275C159.639 46.1838 159.492 46.0237 159.492 45.7763C159.624 44.0005 159.786 41.9191 160.007 39.5466C160.227 37.1741 160.448 34.758 160.668 32.2981L160.977 28.8049V28.8485C160.977 28.572 161.021 28.3682 161.109 28.2518C161.197 28.1208 161.286 28.0334 161.388 27.9898C161.462 27.9461 161.535 27.917 161.609 27.917C161.682 27.917 161.756 27.9024 161.829 27.8733C162.05 27.8297 162.329 27.786 162.667 27.786C162.991 27.7714 163.299 27.7714 163.579 27.7714H163.843L163.961 28.0334C164.181 28.5283 164.519 29.358 164.96 30.4933C165.401 31.6286 165.945 33.1714 166.607 35.0927L166.724 35.4275C166.754 35.5003 166.769 35.573 166.798 35.6458C166.827 35.7186 166.842 35.8059 166.871 35.9078L167.21 36.9267L167.357 37.4507C167.386 37.5526 167.415 37.669 167.474 37.8291C167.504 37.9019 167.518 37.9601 167.548 37.9747C167.577 38.0765 167.592 38.1639 167.621 38.2367C167.665 38.4113 167.709 38.5132 167.739 38.5423C167.783 38.4113 167.827 38.3094 167.856 38.2221C167.886 38.1348 167.915 38.0329 167.974 37.9019L168.239 37.145C168.444 36.5191 168.635 36.0097 168.812 35.6022L169.914 32.5601C170.164 31.8615 170.414 31.1774 170.635 30.5369C170.855 29.8819 171.09 29.2706 171.311 28.703C171.311 28.6739 171.311 28.6593 171.325 28.6447C171.34 28.6302 171.34 28.6011 171.34 28.5574C171.384 28.4846 171.428 28.3973 171.472 28.2954C171.517 28.1935 171.59 28.1062 171.722 28.0334L171.796 27.9606H171.869C172.119 27.917 172.443 27.8733 172.84 27.8297C173.236 27.786 173.604 27.7714 173.957 27.7714H174.265L174.339 28.0771C174.383 28.2809 174.442 28.4701 174.486 28.6447C174.53 28.8194 174.574 29.0668 174.604 29.4016C174.736 31.0318 174.868 32.662 175 34.3067C175.133 35.9515 175.265 37.6108 175.397 39.2846C175.544 40.5655 175.662 41.7445 175.765 42.8507C175.853 43.9569 175.926 44.8593 175.971 45.5871V45.7326L175.897 45.8491C175.75 46.0965 175.471 46.2566 175.059 46.3148C174.648 46.373 174.074 46.4022 173.31 46.4022H173.089L172.972 46.2129C172.84 46.0092 172.751 45.8054 172.707 45.6162C172.663 45.4124 172.619 45.1795 172.59 44.903L172.516 43.3747Z" fill="#EAC500"/>
<path fill-rule="evenodd" clip-rule="evenodd" d="M17.037 15.2102C19.1684 15.0501 23.6959 15.0065 27.9589 14.5116C32.2218 14.0313 36.2201 13.0997 39.9538 12.0954C43.6876 11.0911 47.1714 10.014 50.5818 8.7186C53.9921 7.42318 57.3289 5.92399 60.2689 4.51213C63.2088 3.11483 65.7225 1.80485 67.1043 1.01887C68.4713 0.232887 68.7065 -0.0582185 68.8535 0.0145578C69.0005 0.0873341 69.0446 0.494881 67.0749 2.18329C65.1051 3.8717 61.1215 6.82642 57.226 9.02426C53.3453 11.2367 49.5381 12.6922 45.966 13.8275C42.394 14.9628 39.0131 15.7779 35.2058 16.2437C31.4133 16.6949 27.1798 16.7968 23.8282 16.6803C20.462 16.5639 17.9777 16.2582 16.596 15.9671C15.1995 15.6615 14.9202 15.3704 17.037 15.2102Z" fill="#00B67F"/>
<path fill-rule="evenodd" clip-rule="evenodd" d="M47.4508 15.2102C49.5823 15.0501 54.1098 15.0065 58.4021 14.5407C62.6944 14.0895 66.7663 13.2307 70.5 12.2264C74.2337 11.2221 77.6441 10.0868 81.025 8.74771C84.4059 7.42318 87.7428 5.90944 90.6827 4.51213C93.6227 3.11483 96.1363 1.80485 97.5181 1.01887C98.8852 0.232887 99.1204 -0.0582185 99.2674 0.0145578C99.4144 0.0873341 99.4585 0.494881 97.4887 2.18329C95.519 3.8717 91.5353 6.82642 87.7869 9.03882C84.0238 11.2512 80.5105 12.7213 76.9238 13.8566C73.337 14.9919 69.7062 15.7925 65.7667 16.2437C61.8271 16.6949 57.6083 16.7822 54.2421 16.6803C50.8758 16.5639 48.3916 16.2582 47.0098 15.9671C45.5986 15.6615 45.3193 15.3704 47.4508 15.2102Z" fill="#00BC1D"/>
<path fill-rule="evenodd" clip-rule="evenodd" d="M77.3647 15.2102C79.4962 15.0501 84.0237 15.0065 88.2866 14.5116C92.5496 14.0313 96.5479 13.0997 100.282 12.0954C104.015 11.0911 107.499 10.014 110.91 8.7186C114.32 7.42318 117.657 5.92399 120.597 4.51213C123.522 3.10027 126.05 1.7903 127.417 1.00431C128.784 0.21833 129.02 -0.0727754 129.167 8.95932e-07C129.314 0.0727772 129.358 0.480324 127.388 2.16873C125.418 3.85714 121.435 6.81186 117.554 9.03882C113.673 11.2658 109.881 12.7795 106.309 13.9148C102.722 15.0501 99.3408 15.807 95.5336 16.2437C91.7264 16.6658 87.5076 16.7677 84.1413 16.6512C80.7751 16.5348 78.2908 16.2291 76.909 15.938C75.5273 15.6615 75.248 15.3704 77.3647 15.2102Z" fill="#B8E400"/>
</g>
<defs>
<clipPath id="clip0_2001_560">
<rect width="176" height="54" fill="white"/>
</clipPath>
</defs>
</svg>
