<svg width="50" height="50" viewBox="0 0 50 50" fill="none" xmlns="http://www.w3.org/2000/svg">
<circle cx="25" cy="25" r="25" fill="#FF8A31"/>
<path d="M23.1268 19.1929L22.4305 19.4715L22.4306 19.4717L23.1268 19.1929ZM23.9182 21.1698L24.6146 20.8913L24.6145 20.8911L23.9182 21.1698ZM23.6772 22.6872L24.2532 23.1676L24.2534 23.1674L23.6772 22.6872ZM23.2517 23.1975L22.6757 22.7172L22.6755 22.7174L23.2517 23.1975ZM23.3442 25.2183L23.8747 24.6882L23.8745 24.688L23.3442 25.2183ZM24.7811 26.6566L24.2506 27.1867L24.2508 27.1869L24.7811 26.6566ZM26.8026 26.748L27.2828 27.3242L27.283 27.324L26.8026 26.748ZM27.313 26.3224L26.8328 25.7462L26.8326 25.7464L27.313 26.3224ZM28.8302 26.0822L28.5517 26.7786L28.5517 26.7786L28.8302 26.0822ZM30.8075 26.8728L31.0861 26.1765L31.086 26.1765L30.8075 26.8728ZM31.7503 28.2655L32.5003 28.2656V28.2655H31.7503ZM31.75 30.3289L31 30.3288V30.3289H31.75ZM21.7341 19C22.0408 19 22.3166 19.1867 22.4305 19.4715L23.8232 18.9144C23.4815 18.0601 22.6542 17.5 21.7341 17.5V19ZM22.4306 19.4717L23.222 21.4486L24.6145 20.8911L23.8231 18.9142L22.4306 19.4717ZM23.2219 21.4484C23.324 21.7035 23.2779 21.9949 23.1011 22.2071L24.2534 23.1674C24.7821 22.533 24.9218 21.6592 24.6146 20.8913L23.2219 21.4484ZM23.1012 22.2069L22.6757 22.7172L23.8277 23.6778L24.2532 23.1676L23.1012 22.2069ZM22.6755 22.7174C21.9301 23.6119 21.9915 24.9263 22.8138 25.7486L23.8745 24.688C23.5997 24.4132 23.58 23.9751 23.8279 23.6777L22.6755 22.7174ZM22.8136 25.7484L24.2506 27.1867L25.3117 26.1265L23.8747 24.6882L22.8136 25.7484ZM24.2508 27.1869C25.0739 28.01 26.389 28.069 27.2828 27.3242L26.3225 26.1718C26.0243 26.4203 25.5856 26.4004 25.3115 26.1263L24.2508 27.1869ZM27.283 27.324L27.7933 26.8984L26.8326 25.7464L26.3223 26.172L27.283 27.324ZM27.7931 26.8986C28.0046 26.7223 28.2957 26.6762 28.5517 26.7786L29.1087 25.3858C28.3416 25.079 27.4679 25.217 26.8328 25.7462L27.7931 26.8986ZM28.5517 26.7786L30.5291 27.5692L31.086 26.1765L29.1087 25.3858L28.5517 26.7786ZM30.529 27.5692C30.8137 27.6831 31.0003 27.9588 31.0003 28.2655H32.5003C32.5003 27.3455 31.9403 26.5182 31.0861 26.1765L30.529 27.5692ZM31.0003 28.2653L31 30.3288L32.5 30.329L32.5003 28.2656L31.0003 28.2653ZM31 30.3289C31 30.6996 30.6996 31 30.3291 31V32.5C31.5283 32.5 32.5 31.5278 32.5 30.3289H31ZM30.3291 31C24.0723 31 19 25.9277 19 19.6709H17.5C17.5 26.7561 23.2439 32.5 30.3291 32.5V31ZM19 19.6709C19 19.3004 19.3003 19 19.6711 19V17.5C18.4721 17.5 17.5 18.4718 17.5 19.6709H19ZM19.6711 19H21.7341V17.5H19.6711V19Z" fill="white"/>
</svg>
