<svg width="16" height="16" viewBox="0 0 16 16" fill="none" xmlns="http://www.w3.org/2000/svg">
<path d="M6.12685 2.19291L5.43049 2.47146L5.43057 2.47165L6.12685 2.19291ZM6.91825 4.16982L7.6146 3.89128L7.61453 3.89108L6.91825 4.16982ZM6.67725 5.68722L7.25325 6.16756L7.25341 6.16736L6.67725 5.68722ZM6.25171 6.19751L5.67571 5.71718L5.67554 5.71737L6.25171 6.19751ZM6.34417 8.21829L6.87474 7.68821L6.8745 7.68796L6.34417 8.21829ZM7.78115 9.65659L7.25057 10.1867L7.25082 10.1869L7.78115 9.65659ZM9.80264 9.74801L10.2828 10.3242L10.283 10.324L9.80264 9.74801ZM10.313 9.32239L9.83282 8.74622L9.83259 8.74642L10.313 9.32239ZM11.8302 9.0822L11.5517 9.77856L11.5517 9.7786L11.8302 9.0822ZM13.8075 9.87285L14.0861 9.17649L14.086 9.17645L13.8075 9.87285ZM14.7503 11.2655L15.5003 11.2656V11.2655H14.7503ZM14.75 13.3289L14 13.3288V13.3289H14.75ZM4.73413 2C5.04081 2 5.31659 2.18671 5.43049 2.47146L6.8232 1.91437C6.48151 1.06014 5.65417 0.5 4.73413 0.5V2ZM5.43057 2.47165L6.22197 4.44856L7.61453 3.89108L6.82313 1.91418L5.43057 2.47165ZM6.22189 4.44836C6.32395 4.70352 6.27786 4.99495 6.10108 5.20709L7.25341 6.16736C7.78206 5.53298 7.92178 4.65922 7.6146 3.89128L6.22189 4.44836ZM6.10124 5.20689L5.67571 5.71718L6.82771 6.67785L7.25325 6.16756L6.10124 5.20689ZM5.67554 5.71737C4.93008 6.61193 4.99149 7.92628 5.81384 8.74862L6.8745 7.68796C6.59968 7.41315 6.58002 6.97508 6.82787 6.67765L5.67554 5.71737ZM5.81359 8.74838L7.25057 10.1867L8.31172 9.1265L6.87474 7.68821L5.81359 8.74838ZM7.25082 10.1869C8.07387 11.01 9.38899 11.069 10.2828 10.3242L9.3225 9.17184C9.0243 9.42034 8.58558 9.40036 8.31148 9.12626L7.25082 10.1869ZM10.283 10.324L10.7933 9.89836L9.83259 8.74642L9.32226 9.17204L10.283 10.324ZM10.7931 9.89855C11.0046 9.72232 11.2957 9.67618 11.5517 9.77856L12.1087 8.38585C11.3416 8.07899 10.4679 8.21703 9.83282 8.74622L10.7931 9.89855ZM11.5517 9.7786L13.5291 10.5692L14.086 9.17645L12.1087 8.38581L11.5517 9.7786ZM13.529 10.5692C13.8137 10.6831 14.0003 10.9588 14.0003 11.2655H15.5003C15.5003 10.3455 14.9403 9.51819 14.0861 9.17649L13.529 10.5692ZM14.0003 11.2653L14 13.3288L15.5 13.329L15.5003 11.2656L14.0003 11.2653ZM14 13.3289C14 13.6996 13.6996 14 13.3291 14V15.5C14.5283 15.5 15.5 14.5278 15.5 13.3289H14ZM13.3291 14C7.0723 14 2 8.9277 2 2.6709H0.5C0.5 9.75613 6.24387 15.5 13.3291 15.5V14ZM2 2.6709C2 2.30039 2.30033 2 2.67105 2V0.5C1.47212 0.5 0.5 1.47175 0.5 2.6709H2ZM2.67105 2H4.73413V0.5H2.67105V2Z" fill="white"/>
</svg>
